<?xml version="1.0" encoding="UTF-8"?>
<svg xmlns="http://www.w3.org/2000/svg" width="2001" height="1271" viewBox="0 0 2001 1271" fill="none">
  <g clip-path="url(#clip0_4001_4050)">
    <path d="M370.23 967.711H436.719V982.672H387.226V1017.38H432.296V1032.34H387.226V1071.46H436.719V1086.42H370.23V967.711Z" fill="#1D1D1B"></path>
    <path d="M481.789 1041.01L453.55 999.679H473.462L492.328 1030.64L511.558 999.679H529.401L501.526 1041.01L532.129 1086.42H512.393L490.964 1052.41L469.534 1086.42H450.492L481.789 1041.01Z" fill="#1D1D1B"></path>
    <path d="M566.473 980.296H548.443V962.266H566.473V980.296ZM549.466 999.679H565.45V1086.42H549.466V999.679Z" fill="#1D1D1B"></path>
    <path d="M588.244 1069.41C594.549 1073.5 603.558 1075.54 608.145 1075.54C615.449 1075.54 624.47 1072.47 624.47 1063.12C624.47 1047.29 586.892 1048.67 586.892 1024.33C586.892 1006.3 600.324 997.621 617.507 997.621C624.999 997.621 631.116 999.162 637.408 1001.02L636.055 1014.98C632.468 1012.77 622.953 1010.56 619.201 1010.56C611.038 1010.56 603.899 1013.96 603.899 1021.1C603.899 1038.79 641.478 1033.68 641.478 1061.4C641.478 1079.95 626.681 1088.44 611.215 1088.44C603.04 1088.44 594.713 1087.61 587.397 1083.68L588.256 1069.39L588.244 1069.41Z" fill="#1D1D1B"></path>
    <path d="M706.955 1012.61H683.996V1060.05C683.996 1070.08 690.112 1075.53 697.428 1075.53C702.356 1075.53 705.92 1074 708.307 1072.48V1086.09C704.744 1087.1 699.815 1088.47 694.699 1088.47C678.209 1088.47 668.012 1080.63 668.012 1063.29V1012.61H648.44V999.691H668.012V979.614L683.996 974.509V999.691H706.955V1012.61Z" fill="#1D1D1B"></path>
    <path d="M793.509 1082.86C787.393 1085.07 780.418 1088.47 766.128 1088.47C735.347 1088.47 721.222 1069.76 721.222 1041.53C721.222 1015.84 737.37 997.645 761.87 997.645C790.792 997.645 800.131 1018.73 800.131 1046.63H738.229C738.229 1063.8 751.661 1075.55 766.81 1075.55C777.348 1075.55 789.592 1070.1 793.497 1066.87V1082.86H793.509ZM783.135 1034.72C783.135 1021.45 775.313 1010.57 761.541 1010.57C745.898 1010.57 739.429 1023.48 738.241 1034.72H783.147H783.135Z" fill="#1D1D1B"></path>
    <path d="M821.56 999.679H837.039V1013.45H837.38C842.155 1003.58 853.717 997.633 865.796 997.633C888.249 997.633 898.282 1011.58 898.282 1034.88V1086.42H882.298V1041.52C882.298 1021.27 877.863 1011.42 863.926 1010.57C845.731 1010.57 837.556 1025.2 837.556 1046.28V1086.42H821.572V999.679H821.56Z" fill="#1D1D1B"></path>
    <path d="M919.182 1072.48L969.193 1012.61H921.558V999.679H987.717V1013.63L937.719 1073.51H989.599V1086.42H919.182V1072.48Z" fill="#1D1D1B"></path>
    <path d="M1087.21 1082.68C1087.21 1109.05 1073.6 1124.18 1042.48 1124.18C1033.29 1124.18 1025.31 1122.99 1011.35 1118.23L1013.05 1103.43C1025.3 1109.04 1032.62 1111.25 1044.35 1111.25C1061.19 1111.25 1071.23 1099.85 1071.23 1081.48V1072.97H1070.87C1064.09 1082 1052.84 1086.42 1041.79 1086.42C1016.96 1086.42 1004.72 1066.18 1004.72 1043.73C1004.72 1021.27 1017.31 997.621 1043.49 997.621C1058.8 997.621 1067.3 1003.24 1072.06 1012.59H1072.41V999.656H1087.21V1082.66V1082.68ZM1071.23 1044.08C1071.23 1026.05 1062.9 1010.57 1045.88 1010.57C1028.86 1010.57 1021.73 1028.1 1021.73 1042.89C1021.73 1059.22 1030.92 1073.51 1045.88 1073.51C1060.84 1073.51 1071.23 1060.25 1071.23 1044.08Z" fill="#1D1D1B"></path>
    <path d="M1114.41 999.679H1129.39V1013.11H1129.73C1133.99 1004.1 1143.16 997.633 1152.35 997.633C1157.11 997.633 1159.48 998.15 1162.88 998.821V1013.11C1160 1011.92 1156.77 1011.58 1154.05 1011.58C1139.76 1011.58 1130.4 1025.19 1130.4 1046.95V1086.41H1114.41V999.668V999.679Z" fill="#1D1D1B"></path>
    <path d="M1257.27 1086.42H1241.79V1072.65H1241.45C1236.69 1082.52 1225.13 1088.47 1213.05 1088.47C1190.58 1088.47 1180.56 1074.53 1180.56 1051.22V999.679H1196.55V1044.59C1196.55 1064.83 1200.97 1074.7 1214.91 1075.54C1233.11 1075.54 1241.28 1060.9 1241.28 1039.82V999.679H1257.26V1086.42H1257.27ZM1197.06 969.405H1213.05V986.412H1197.06V969.405ZM1224.95 969.405H1240.93V986.412H1224.95V969.405Z" fill="#1D1D1B"></path>
    <path d="M1284.48 999.679H1299.94V1013.45H1300.3C1305.06 1003.58 1316.62 997.633 1328.7 997.633C1351.15 997.633 1361.19 1011.58 1361.19 1034.88V1086.42H1345.2V1041.52C1345.2 1021.27 1340.78 1011.42 1326.83 1010.57C1308.63 1010.57 1300.47 1025.2 1300.47 1046.28V1086.42H1284.49V999.679H1284.48Z" fill="#1D1D1B"></path>
    <path d="M1449.77 1074.18H1449.44C1445.19 1080.63 1435.33 1088.46 1419.85 1088.46C1393.65 1088.46 1382.59 1065.17 1382.59 1041.53C1382.59 1017.89 1394.85 997.645 1420.02 997.645C1435.14 997.645 1443.82 1003.6 1448.75 1011.58H1449.1V958.855H1465.09V1086.42H1449.77V1074.18ZM1423.59 1075.54C1441.62 1075.54 1449.1 1057.69 1449.1 1043.22C1449.1 1027.07 1440.76 1010.57 1423.42 1010.57C1406.07 1010.57 1399.26 1026.91 1399.61 1042.73C1399.26 1056.34 1406.41 1075.55 1423.59 1075.55" fill="#1D1D1B"></path>
    <path d="M1568.99 1086.42H1553.51V1072.65H1553.17C1548.41 1082.52 1536.83 1088.47 1524.77 1088.47C1502.31 1088.47 1492.28 1074.53 1492.28 1051.22V999.679H1508.27V1044.59C1508.27 1064.83 1512.69 1074.68 1526.63 1075.53C1544.83 1075.53 1552.99 1060.9 1552.99 1039.82V999.679H1568.98V1086.42H1568.99Z" fill="#1D1D1B"></path>
    <path d="M1596.18 999.679H1611.66V1013.45H1612C1616.78 1003.58 1628.34 997.633 1640.41 997.633C1662.87 997.633 1672.9 1011.58 1672.9 1034.88V1086.42H1656.91V1041.52C1656.91 1021.27 1652.49 1011.42 1638.55 1010.57C1620.34 1010.57 1612.19 1025.2 1612.19 1046.28V1086.42H1596.2V999.679H1596.18Z" fill="#1D1D1B"></path>
    <path d="M1776.81 1082.68C1776.81 1109.05 1763.2 1124.18 1732.09 1124.18C1722.89 1124.18 1714.91 1122.99 1700.96 1118.23L1702.65 1103.43C1714.89 1109.04 1722.22 1111.25 1733.95 1111.25C1750.79 1111.25 1760.82 1099.85 1760.82 1081.48V1072.97H1760.48C1753.68 1082 1742.45 1086.42 1731.4 1086.42C1706.57 1086.42 1694.32 1066.18 1694.32 1043.73C1694.32 1021.27 1706.91 997.621 1733.09 997.621C1748.4 997.621 1756.89 1003.24 1761.67 1012.59H1762V999.656H1776.8V1082.66L1776.81 1082.68ZM1760.82 1044.08C1760.82 1026.05 1752.5 1010.57 1735.48 1010.57C1718.46 1010.57 1711.33 1028.1 1711.33 1042.89C1711.33 1059.22 1720.52 1073.51 1735.48 1073.51C1750.44 1073.51 1760.82 1060.25 1760.82 1044.08Z" fill="#1D1D1B"></path>
    <path d="M1870.5 1082.86C1864.38 1085.07 1857.41 1088.47 1843.12 1088.47C1812.34 1088.47 1798.21 1069.76 1798.21 1041.53C1798.21 1015.84 1814.39 997.645 1838.86 997.645C1867.78 997.645 1877.13 1018.73 1877.13 1046.63H1815.23C1815.23 1063.8 1828.66 1075.55 1843.81 1075.55C1854.35 1075.55 1866.6 1070.1 1870.5 1066.87V1082.86ZM1860.13 1034.72C1860.13 1021.45 1852.31 1010.57 1838.53 1010.57C1822.88 1010.57 1816.42 1023.48 1815.23 1034.72H1860.14H1860.13Z" fill="#1D1D1B"></path>
    <path d="M1898.56 999.679H1914.04V1013.45H1914.38C1919.15 1003.58 1930.72 997.633 1942.79 997.633C1965.24 997.633 1975.27 1011.58 1975.27 1034.88V1086.42H1959.29V1041.52C1959.29 1021.27 1954.87 1011.42 1940.93 1010.57C1922.72 1010.57 1914.56 1025.2 1914.56 1046.28V1086.42H1898.58V999.679H1898.56Z" fill="#1D1D1B"></path>
    <path d="M371.924 1187.92C379.922 1183.16 389.437 1179.76 400.493 1179.76C425.322 1179.76 435.354 1192.01 435.354 1215.65V1251.52C435.354 1261.39 435.707 1265.99 436.037 1268.54H421.064V1257.32H420.723C416.983 1262.6 408.479 1270.59 393.848 1270.59C375.146 1270.59 362.044 1262.41 362.044 1243.55C362.044 1221.76 385.85 1214.96 402.351 1214.96C408.632 1214.96 413.054 1214.96 419.359 1215.32C419.359 1200.35 413.913 1192.69 397.929 1192.69C388.919 1192.69 379.216 1196.09 372.747 1201.53L371.912 1187.92H371.924ZM419.382 1227.21C415.983 1227.21 412.584 1226.87 409.173 1226.87C400.493 1226.87 379.063 1228.22 379.063 1243.53C379.063 1252.72 387.908 1257.65 395.235 1257.65C411.043 1257.65 419.382 1247.78 419.382 1234.87V1227.21Z" fill="#1D1D1B"></path>
    <path d="M539.104 1268.54H523.626V1254.77H523.285C518.521 1264.63 506.948 1270.59 494.868 1270.59C472.415 1270.59 462.383 1256.65 462.383 1233.34V1181.8H478.379V1226.7C478.379 1246.94 482.801 1256.8 496.739 1257.65C514.934 1257.65 523.108 1243.02 523.108 1221.94V1181.8H539.092V1268.54H539.104Z" fill="#1D1D1B"></path>
    <path d="M559.84 1251.53C566.144 1255.61 575.154 1257.66 579.741 1257.66C587.045 1257.66 596.078 1254.59 596.078 1245.24C596.078 1229.41 558.487 1230.78 558.487 1206.45C558.487 1188.42 571.919 1179.74 589.103 1179.74C596.595 1179.74 602.711 1181.28 609.004 1183.14L607.651 1197.1C604.064 1194.89 594.549 1192.68 590.808 1192.68C582.634 1192.68 575.495 1196.08 575.495 1203.21C575.495 1220.9 613.085 1215.8 613.085 1243.52C613.085 1262.07 598.277 1270.56 582.81 1270.56C574.636 1270.56 566.309 1269.73 558.993 1265.8L559.852 1251.51L559.84 1251.53Z" fill="#1D1D1B"></path>
    <path d="M741.134 1256.3H740.793C736.535 1262.75 726.667 1270.57 711.189 1270.57C684.996 1270.57 673.94 1247.29 673.94 1223.64C673.94 1200 686.207 1179.76 711.365 1179.76C726.491 1179.76 735.171 1185.71 740.111 1193.7H740.452V1140.97H756.436V1268.54H741.122V1256.3H741.134ZM714.941 1257.65C732.972 1257.65 740.452 1239.79 740.452 1225.33C740.452 1209.18 732.113 1192.68 714.765 1192.68C697.416 1192.68 690.606 1209.01 690.959 1224.83C690.606 1238.44 697.757 1257.66 714.941 1257.66" fill="#1D1D1B"></path>
    <path d="M850.141 1264.96C844.025 1267.17 837.039 1270.57 822.76 1270.57C791.968 1270.57 777.854 1251.86 777.854 1223.63C777.854 1197.95 794.003 1179.75 818.502 1179.75C847.424 1179.75 856.775 1200.84 856.775 1228.74H794.873C794.873 1245.91 808.305 1257.64 823.442 1257.64C833.992 1257.64 846.248 1252.19 850.153 1248.97V1264.95L850.141 1264.96ZM839.767 1216.84C839.767 1203.57 831.946 1192.69 818.173 1192.69C802.518 1192.69 796.061 1205.6 794.873 1216.84H839.779H839.767Z" fill="#1D1D1B"></path>
    <path d="M878.193 1181.8H893.154V1195.23H893.495C897.752 1186.22 906.926 1179.75 916.124 1179.75C920.888 1179.75 923.263 1180.27 926.663 1180.94V1195.23C923.781 1194.04 920.547 1193.7 917.818 1193.7C903.527 1193.7 894.177 1207.31 894.177 1229.07V1268.53H878.193V1181.79V1181.8Z" fill="#1D1D1B"></path>
    <path d="M978.355 1149.82H997.08L1025.47 1251.52H1025.83L1051.16 1149.82H1075.32L1100.98 1251.52H1101.34L1129.74 1149.82H1147.76L1111.2 1268.54H1089.26L1063.4 1164.78H1063.06L1037.03 1268.54H1014.25L978.355 1149.82Z" fill="#1D1D1B"></path>
    <path d="M1180.74 1162.41H1162.71V1144.38H1180.74V1162.41ZM1163.73 1181.8H1179.71V1268.54H1163.73V1181.8Z" fill="#1D1D1B"></path>
    <path d="M1202.51 1251.53C1208.8 1255.61 1217.82 1257.66 1222.41 1257.66C1229.71 1257.66 1238.73 1254.59 1238.73 1245.24C1238.73 1229.41 1201.16 1230.78 1201.16 1206.45C1201.16 1188.42 1214.6 1179.74 1231.77 1179.74C1239.26 1179.74 1245.38 1181.28 1251.67 1183.14L1250.32 1197.1C1246.73 1194.89 1237.22 1192.68 1233.47 1192.68C1225.3 1192.68 1218.16 1196.08 1218.16 1203.21C1218.16 1220.9 1255.74 1215.8 1255.74 1243.52C1255.74 1262.07 1240.95 1270.56 1225.48 1270.56C1217.31 1270.56 1208.97 1269.73 1201.66 1265.8L1202.52 1251.51L1202.51 1251.53Z" fill="#1D1D1B"></path>
    <path d="M1268.66 1251.53C1274.95 1255.61 1283.97 1257.66 1288.56 1257.66C1295.86 1257.66 1304.89 1254.59 1304.89 1245.24C1304.89 1229.41 1267.3 1230.78 1267.3 1206.45C1267.3 1188.42 1280.75 1179.74 1297.92 1179.74C1305.41 1179.74 1311.53 1181.28 1317.82 1183.14L1316.47 1197.1C1312.88 1194.89 1303.37 1192.68 1299.62 1192.68C1291.45 1192.68 1284.31 1196.08 1284.31 1203.21C1284.31 1220.9 1321.89 1215.8 1321.89 1243.52C1321.89 1262.07 1307.09 1270.56 1291.63 1270.56C1283.45 1270.56 1275.13 1269.73 1267.81 1265.8L1268.67 1251.51L1268.66 1251.53Z" fill="#1D1D1B"></path>
    <path d="M1407.77 1264.96C1401.66 1267.17 1394.68 1270.57 1380.39 1270.57C1349.6 1270.57 1335.49 1251.86 1335.49 1223.63C1335.49 1197.95 1351.63 1179.75 1376.13 1179.75C1405.06 1179.75 1414.41 1200.84 1414.41 1228.74H1352.51C1352.51 1245.91 1365.94 1257.64 1381.09 1257.64C1391.62 1257.64 1403.87 1252.19 1407.77 1248.97V1264.95V1264.96ZM1397.4 1216.84C1397.4 1203.57 1389.58 1192.69 1375.81 1192.69C1360.15 1192.69 1353.69 1205.6 1352.51 1216.84H1397.41H1397.4Z" fill="#1D1D1B"></path>
    <path d="M1435.82 1181.8H1451.3V1195.57H1451.64C1456.42 1185.7 1467.98 1179.75 1480.05 1179.75C1502.5 1179.75 1512.53 1193.7 1512.53 1217V1268.54H1496.55V1223.63C1496.55 1203.39 1492.13 1193.54 1478.19 1192.69C1460 1192.69 1451.82 1207.32 1451.82 1228.4V1268.54H1435.84V1181.8H1435.82Z" fill="#1D1D1B"></path>
    <path d="M1533.27 1251.53C1539.56 1255.61 1548.58 1257.66 1553.17 1257.66C1560.47 1257.66 1569.5 1254.59 1569.5 1245.24C1569.5 1229.41 1531.92 1230.78 1531.92 1206.45C1531.92 1188.42 1545.36 1179.74 1562.53 1179.74C1570.03 1179.74 1576.14 1181.28 1582.43 1183.14L1581.08 1197.1C1577.49 1194.89 1567.98 1192.68 1564.24 1192.68C1556.06 1192.68 1548.93 1196.08 1548.93 1203.21C1548.93 1220.9 1586.5 1215.8 1586.5 1243.52C1586.5 1262.07 1571.71 1270.56 1556.23 1270.56C1548.07 1270.56 1539.74 1269.73 1532.42 1265.8L1533.28 1251.51L1533.27 1251.53Z" fill="#1D1D1B"></path>
    <path d="M1660.99 1196.42C1654.87 1193.86 1648.75 1192.68 1643.65 1192.68C1625.8 1192.68 1615.75 1208.66 1615.75 1225.16C1615.75 1240.63 1624.08 1257.65 1644.68 1257.65C1650.11 1257.65 1656.91 1255.95 1661.85 1252.71L1663.04 1267C1656.4 1270.07 1648.75 1270.56 1642.97 1270.56C1616.78 1270.56 1598.76 1249.99 1598.76 1225.16C1598.76 1198.8 1616.45 1179.74 1642.97 1179.74C1649.44 1179.74 1657.78 1181.28 1662.35 1183.14L1661 1196.4L1660.99 1196.42Z" fill="#1D1D1B"></path>
    <path d="M1681.4 1140.97H1697.38V1194.21H1697.73C1703.51 1185.02 1713.55 1179.76 1725.62 1179.76C1748.07 1179.76 1758.11 1193.7 1758.11 1217.01V1268.55H1742.12V1223.64C1742.12 1203.4 1737.7 1193.54 1723.76 1192.69C1705.56 1192.69 1697.39 1207.32 1697.39 1228.41V1268.55H1681.41V1140.98L1681.4 1140.97Z" fill="#1D1D1B"></path>
    <path d="M1789.38 1187.92C1797.38 1183.16 1806.91 1179.76 1817.95 1179.76C1842.79 1179.76 1852.82 1192.01 1852.82 1215.65V1251.52C1852.82 1261.39 1853.16 1265.99 1853.49 1268.54H1838.53V1257.32H1838.2C1834.45 1262.6 1825.95 1270.59 1811.33 1270.59C1792.61 1270.59 1779.51 1262.41 1779.51 1243.55C1779.51 1221.76 1803.32 1214.96 1819.82 1214.96C1826.11 1214.96 1830.52 1214.96 1836.83 1215.32C1836.83 1200.35 1831.39 1192.69 1815.4 1192.69C1806.39 1192.69 1796.7 1196.09 1790.23 1201.53L1789.37 1187.92H1789.38ZM1836.83 1227.21C1833.43 1227.21 1830.03 1226.87 1826.62 1226.87C1817.94 1226.87 1796.51 1228.22 1796.51 1243.53C1796.51 1252.72 1805.35 1257.65 1812.66 1257.65C1828.49 1257.65 1836.82 1247.78 1836.82 1234.87V1227.21H1836.83Z" fill="#1D1D1B"></path>
    <path d="M1890.24 1194.72H1869.83V1181.81H1890.24V1173.81C1890.24 1152.72 1895.68 1138.94 1919.32 1138.94C1923.39 1138.94 1926.82 1139.46 1930.03 1139.96L1929.36 1152.88C1927.47 1152.2 1924.42 1151.86 1921.7 1151.86C1907.93 1151.86 1906.22 1160.71 1906.22 1172.43V1181.8H1929.18V1194.71H1906.22V1268.53H1890.24V1194.71V1194.72Z" fill="#1D1D1B"></path>
    <path d="M1992.1 1194.72H1969.13V1242.17C1969.13 1252.2 1975.26 1257.65 1982.59 1257.65C1987.52 1257.65 1991.08 1256.12 1993.47 1254.6V1268.21C1989.91 1269.22 1984.98 1270.59 1979.86 1270.59C1963.37 1270.59 1953.17 1262.75 1953.17 1245.4V1194.72H1933.6V1181.81H1953.17V1161.73L1969.15 1156.63V1181.81H1992.12V1194.72H1992.1Z" fill="#1D1D1B"></path>
    <path d="M351.705 743.452C307.082 754.378 260.647 762.576 214.2 762.576C101.3 762.564 0.219971 717.047 0.219971 553.148C0.219971 424.758 90.3731 276.337 254.272 276.337C366.255 276.337 429.085 343.72 429.085 453.903C429.085 484.86 425.451 511.265 420.899 538.587H94.0075C92.1844 548.608 91.2788 557.711 91.2788 567.721C91.2788 665.166 151.369 693.382 234.242 693.382C277.031 693.382 323.466 682.467 365.349 665.166L351.705 743.463V743.452ZM340.779 474.839C342.602 461.183 343.508 450.257 343.508 439.33C343.508 384.697 309.822 345.543 245.168 345.543C175.057 345.543 121.342 406.55 103.135 474.85H340.791L340.779 474.839Z" fill="#1D1D1B"></path>
    <path d="M1162.1 283.065H1229.48L1129.42 748.697H1062.04L1162.1 283.065Z" fill="#1D1D1B"></path>
    <path d="M1162.1 283.065H1229.48L1129.42 748.697H1062.04L1162.1 283.065Z" stroke="#1D1D1B" stroke-width="0.446943"></path>
    <path d="M1549.01 356.446C1526.99 343.108 1499.64 333.769 1464.29 333.769C1420.26 333.769 1372.23 351.106 1372.23 406.468C1372.23 484.53 1531.01 485.189 1531.01 607.263C1531.01 677.304 1482.31 756.695 1370.23 756.695C1316.2 756.695 1277.5 744.687 1240.15 730.02L1261.49 668.647C1288.85 685.984 1326.88 697.993 1359.57 697.993C1430.27 697.993 1460.3 653.969 1460.3 615.273C1460.3 520.545 1301.53 537.223 1301.53 407.809C1301.53 323.09 1378.92 275.067 1455.63 275.067C1494.32 275.067 1532.35 282.394 1567.68 297.073L1549.02 356.446H1549.01Z" fill="#1D1D1B"></path>
    <path d="M1549.01 356.446C1526.99 343.108 1499.64 333.769 1464.29 333.769C1420.26 333.769 1372.23 351.106 1372.23 406.468C1372.23 484.53 1531.01 485.189 1531.01 607.263C1531.01 677.304 1482.31 756.695 1370.23 756.695C1316.2 756.695 1277.5 744.687 1240.15 730.02L1261.49 668.647C1288.85 685.984 1326.88 697.993 1359.57 697.993C1430.27 697.993 1460.3 653.969 1460.3 615.273C1460.3 520.545 1301.53 537.223 1301.53 407.809C1301.53 323.09 1378.92 275.067 1455.63 275.067C1494.32 275.067 1532.35 282.394 1567.68 297.073L1549.02 356.446H1549.01Z" stroke="#1D1D1B" stroke-width="0.446943"></path>
    <path d="M1987.27 341.767H1842.52L1755.12 748.685H1687.75L1775.14 341.767H1630.37L1643.04 283.077H1999.94L1987.27 341.767Z" fill="#1D1D1B"></path>
    <path d="M1987.27 341.767H1842.52L1755.12 748.685H1687.75L1775.14 341.767H1630.37L1643.04 283.077H1999.94L1987.27 341.767Z" stroke="#1D1D1B" stroke-width="0.446943"></path>
    <path d="M815.527 516.569L973.991 828.359H815.527L710.754 602.194L475.615 864.15L367.007 793.862L649.417 499.962L497.338 193.276H649.417L751.637 416.901L982.93 158.768L1088.99 226.503L815.527 516.569Z" fill="#E20613"></path>
    <path d="M884.979 87.586C884.979 135.444 846.189 174.246 798.319 174.246C750.449 174.246 711.636 135.444 711.636 87.586C711.636 39.7278 750.449 0.914291 798.319 0.914291C846.189 0.914291 884.979 39.7278 884.979 87.586Z" fill="#C6C6C5"></path>
  </g>
  <defs>
    <clipPath id="clip0_4001_4050">
      <rect width="2000" height="1269.67" fill="white" transform="translate(0.219971 0.914291)"></rect>
    </clipPath>
  </defs>
</svg>
